<?xml version="1.0" encoding="UTF-8" standalone="no"?>
<!DOCTYPE svg PUBLIC "-//W3C//DTD SVG 1.1//EN" "http://www.w3.org/Graphics/SVG/1.1/DTD/svg11.dtd">
<svg version="1.1" xmlns="http://www.w3.org/2000/svg" xmlns:xlink="http://www.w3.org/1999/xlink" preserveAspectRatio="xMidYMid meet" viewBox="0 0 640 640" width="640" height="640"><defs><path d="M264.13 220.2C264.13 246.77 242.55 268.35 215.98 268.35C189.41 268.35 167.83 246.77 167.83 220.2C167.83 193.63 189.41 172.05 215.98 172.05C242.55 172.05 264.13 193.63 264.13 220.2Z" id="apZkK00G"></path><path d="M372.1 220.2C372.1 246.77 350.52 268.35 323.95 268.35C297.38 268.35 275.8 246.77 275.8 220.2C275.8 193.63 297.38 172.05 323.95 172.05C350.52 172.05 372.1 193.63 372.1 220.2Z" id="d82zwE3orW"></path><path d="M478.88 220.2C478.88 246.77 457.31 268.35 430.73 268.35C404.16 268.35 382.59 246.77 382.59 220.2C382.59 193.63 404.16 172.05 430.73 172.05C457.31 172.05 478.88 193.63 478.88 220.2Z" id="bHowuYRbE"></path><path d="M264.13 332.93C264.13 359.5 242.55 381.08 215.98 381.08C189.41 381.08 167.83 359.5 167.83 332.93C167.83 306.36 189.41 284.78 215.98 284.78C242.55 284.78 264.13 306.36 264.13 332.93Z" id="b240JzWKJF"></path><path d="M372.1 332.93C372.1 359.5 350.52 381.08 323.95 381.08C297.38 381.08 275.8 359.5 275.8 332.93C275.8 306.36 297.38 284.78 323.95 284.78C350.52 284.78 372.1 306.36 372.1 332.93Z" id="hbSGPAxMd"></path><path d="M478.88 332.93C478.88 359.5 457.31 381.08 430.73 381.08C404.16 381.08 382.59 359.5 382.59 332.93C382.59 306.36 404.16 284.78 430.73 284.78C457.31 284.78 478.88 306.36 478.88 332.93Z" id="e5FZBgbvPd"></path><path d="M264.13 446.84C264.13 473.42 242.55 494.99 215.98 494.99C189.41 494.99 167.83 473.42 167.83 446.84C167.83 420.27 189.41 398.7 215.98 398.7C242.55 398.7 264.13 420.27 264.13 446.84Z" id="f6uY8AoXd"></path><path d="M372.1 446.84C372.1 473.42 350.52 494.99 323.95 494.99C297.38 494.99 275.8 473.42 275.8 446.84C275.8 420.27 297.38 398.7 323.95 398.7C350.52 398.7 372.1 420.27 372.1 446.84Z" id="aeklG5QhR"></path><path d="M478.88 446.84C478.88 473.42 457.31 494.99 430.73 494.99C404.16 494.99 382.59 473.42 382.59 446.84C382.59 420.27 404.16 398.7 430.73 398.7C457.31 398.7 478.88 420.27 478.88 446.84Z" id="a6304hlNI"></path></defs><g><g><g><use xlink:href="#apZkK00G" opacity="1" fill="#5f6368" fill-opacity="1"></use></g><g><use xlink:href="#d82zwE3orW" opacity="1" fill="#5f6368" fill-opacity="1"></use></g><g><use xlink:href="#bHowuYRbE" opacity="1" fill="#5f6368" fill-opacity="1"></use></g><g><use xlink:href="#b240JzWKJF" opacity="1" fill="#5f6368" fill-opacity="1"></use></g><g><use xlink:href="#hbSGPAxMd" opacity="1" fill="#5f6368" fill-opacity="1"></use></g><g><use xlink:href="#e5FZBgbvPd" opacity="1" fill="#5f6368" fill-opacity="1"></use></g><g><use xlink:href="#f6uY8AoXd" opacity="1" fill="#5f6368" fill-opacity="1"></use></g><g><use xlink:href="#aeklG5QhR" opacity="1" fill="#5f6368" fill-opacity="1"></use></g><g><use xlink:href="#a6304hlNI" opacity="1" fill="#5f6368" fill-opacity="1"></use></g></g></g></svg>